<svg xmlns="http://www.w3.org/2000/svg" width="800" height="800"><path d="M0 0v800h800V0H0z" fill="#c33d6f"/><path d="M394 155.518c-9.238.69-16.796 6.451-19.363 15.482-1.579 5.556-.637 12.271-.637 18v256c0 4.895-.585 10.245.789 15 2.98 10.31 12.928 15.77 23.211 14.906 7.654-.643 14.928-6.559 17.197-13.906 1.803-5.84.803-12.953.803-19V185c0-4.895.585-10.245-.789-15-2.617-9.053-11.844-15.182-21.211-14.482z" fill="#fefcfc"/><path d="M192 166.649c-6.345 1.903-11.489 7.536-15.714 12.351-9.773 11.139-16.232 23.343-18.822 38-1.53 8.656-.464 18.227-.464 27v121c0 11.801-1.153 24.283.286 36 2.115 17.22 9.6 31.63 21.729 43.999 6.24 6.364 13.548 12.156 22.985 9.197 8.777-2.752 12.614-11.869 9.437-20.196-2.656-6.96-9.394-12.009-13.655-18-5.823-8.185-8.522-18.002-8.767-28-.865-35.286-.015-70.702-.015-106 0-19.758-2.569-41.568 1.314-61 1.451-7.26 6.061-14.497 10.87-20 4.513-5.165 10.025-9.937 11.436-17 2.294-11.491-9.889-20.571-20.62-17.351m396 .054c-8.589 2.909-12.308 13.102-8.991 21.297 2.181 5.386 7.441 9.487 10.976 14 6.861 8.756 10.878 17.775 11.011 29 .432 36.322.004 72.675.004 109 0 19.804 2.535 41.582-1.604 61-1.588 7.45-5.791 14.236-10.697 20-3.73 4.384-8.618 8.193-10.141 14-3.175 12.106 6.303 22.004 18.442 19.66 6.612-1.277 11.792-6.958 16.155-11.699 10.24-11.127 17.499-23.862 19.675-38.961 1.765-12.241 1.17-24.659 1.17-37V254c0-12.341.595-24.759-1.17-37-2.374-16.471-11.071-30.478-22.831-41.985-5.849-5.724-13.346-11.243-21.999-8.312z" fill="#030202"/><path d="M334 195.518c-25.538 1.908-20 32.636-20 50.482v147c0 15.016-3.423 36.981 16 41.471 2.574.595 5.374.656 8 .435 24.015-2.018 18-34.562 18-50.906V238c0-14.757 3.846-35.49-14-41.401-2.57-.852-5.297-1.283-8-1.081m120 0c-25.538 1.908-20 32.636-20 50.482v147c0 15.016-3.423 36.981 16 41.471 2.574.595 5.374.656 8 .435 24.016-2.018 18-34.562 18-50.906V238c0-14.757 3.846-35.49-14-41.401-2.57-.852-5.297-1.283-8-1.081m-180 40c-10.106.755-18.872 8.064-19.895 18.482-.868 8.843-.105 18.115-.105 27v82c0 5.194-.648 10.908.529 16 2.507 10.844 12.852 16.798 23.471 15.906 17.046-1.433 18-17.748 18-30.906v-73c0-12.216.906-24.826-.093-37-.9-10.97-10.927-19.303-21.907-18.482m240 0c-10.106.755-18.872 8.064-19.895 18.482-.868 8.843-.105 18.115-.105 27v82c0 5.194-.648 10.908.529 16 2.507 10.844 12.852 16.798 23.471 15.906 17.046-1.433 18-17.748 18-30.906v-73c0-12.216.906-24.826-.093-37-.9-10.97-10.927-19.303-21.907-18.482z" fill="#fefcfc"/><path d="M116 564c-3.88-2.311-7.385-4.526-12-4.907-3.188-.262-6.919-.407-10 .56-12.526 3.929-13.125 19.529-12.996 30.347.08 6.661.734 15.351 4.698 20.957C92.91 621.15 107.74 619.346 116 612c2.016 5.604 9.239 7.99 12.821 1.856C131.14 609.885 130 603.421 130 599v-39c0-5.343 1.353-12.934-.742-17.941-1.943-4.644-10.19-5.81-12.516-.831-2.75 5.887-.742 16.344-.742 22.772z" fill="#030202"/><path d="M274 586c3.215 0 7.77-.776 10.61 1.028 2.609 1.657 4.062 5.383 5.54 7.972 3.751 6.566 7.538 17.028 13.943 21.396 4.992 3.404 11.836-.328 11.585-6.397-.203-4.917-4.173-9.874-6.528-13.999-2.451-4.294-5.059-8.521-7.15-13 15.552-6.841 19.006-28.098 5.826-39.316C299.084 536.243 286.625 538 276 538c-3.95 0-9.18-.854-12.891.742C257.161 541.3 259 550.825 259 556v39c0 5.33-1.37 12.938.603 17.956 2.06 5.238 9.36 6.486 12.794 1.896C275.075 611.271 274 605.201 274 601v-15z" fill="#fefcfc"/><path d="M274 552v21c6.535 0 15.058 1.322 20.945-2.14 5.833-3.43 6.941-12.933.946-16.771C290.035 550.341 280.633 552 274 552z" fill="#c33d6f"/><path d="M348 558.518c-17.663 1.319-23.181 15.898-22.996 31.482.086 7.299 1.233 15.302 6.325 20.895 5.556 6.102 13.798 7.594 21.671 7.015 31.965-2.354 28.75-61.914-5-59.392M433 566c-9.608-9.108-20.052-8.523-31-2-3.133-6.213-11.489-6.446-13.566 1.005C387.076 569.874 388 575.98 388 581c0 9.499-.952 19.56.109 28.999.537 4.784 4.643 9.256 9.847 7.382 4.447-1.601 4.983-6.311 5.04-10.381.117-8.371-1.272-17.757.232-26 .946-5.178 6.245-10.206 11.768-8.242 5.902 2.098 6.974 7.764 7.003 13.242.042 7.879-.77 16.168.11 23.999.572 5.096 5.48 9.871 10.782 6.969 3.709-2.029 4.053-6.206 4.105-9.968.107-7.661-.221-15.342.019-23 .166-5.28 2.944-11.236 8.985-11.663 4.898-.346 8.952 4.171 9.772 8.663 1.783 9.768-1.348 20.232.456 29.996 1.035 5.599 7.834 9.321 12.338 4.686C472.701 611.427 471 602.417 471 597c0-8.794 1.793-19.939-2.442-28-6.717-12.785-26.795-14.159-35.558-3m83 17c-8.185 0-18.792-1.848-25.996 2.819-10.976 7.109-10.385 23.579.997 30.092 8.301 4.749 18.501 1.541 25.999-2.911 3.08 6.105 11.291 6.144 13.427-1.019 1.2-4.022.573-8.832.573-12.981 0-9.671 2.271-23.617-3.653-31.985-6.408-9.052-20.424-10.086-30.347-7.409-4.873 1.314-13.625 5.831-9.968 12.246 3.426 6.007 10.454 1.05 14.968-.215 8.784-2.46 12.943 3.556 14 11.363m106-19c-3.133-6.213-11.489-6.446-13.566 1.005C606.996 570.16 608 576.681 608 582c0 9.258-1.455 19.888.228 28.996.904 4.891 5.879 8.439 10.663 5.821 4.058-2.221 4.087-6.76 4.108-10.817.042-7.88-.766-16.167.11-24 .578-5.169 5.153-10.735 10.891-9.522 6.206 1.312 7.961 7.023 7.999 12.522.058 8.343-1.278 17.786.229 25.999 1.072 5.842 7.68 9.223 12.338 4.567C659.125 611.01 657 599.906 657 594c0-14.657 1.3-31.856-17-35.316-2.716-.514-5.325-.302-8 .361-3.728.923-6.754 3.003-10 4.955m80 19c-8.908 0-20.266-1.961-27.815 3.85-10.035 7.726-7.312 24.592 3.819 29.733 8.243 3.807 17.763.712 24.996-3.583 2.63 5.214 10.516 6.876 12.566-.055 1.081-3.654.434-8.173.434-11.945 0-9.799 3.002-25.555-2.854-33.96-6.29-9.027-20.353-10.072-30.146-7.434-5.021 1.352-13.811 5.585-9.968 12.246 2.444 4.237 7.302 2.793 10.968 1.442 6.335-2.334 13.052-3.584 16.566 3.706.915 1.897 1.15 3.949 1.434 6z" fill="#fefcfc"/><path d="M158 593h23c3.629-.002 7.877.487 10.682-2.318 3.649-3.649 2.281-10.268 1.017-14.682-3.817-13.329-18.654-20.111-31.699-16.362-25.499 7.329-22.63 53.275 3 57.898 7.408 1.336 16.804.579 22.981-4.105 2.733-2.072 5.936-5.652 3.972-9.283-3.301-6.1-10.729-1.106-14.953.639-8.941 3.693-17.385-2.618-18-11.787m66 1c-2.431-5.485-4.104-11.31-6-17-1.629-4.889-2.557-11.983-6.394-15.681-3.815-3.677-9.834-1.592-10.418 3.696-.509 4.613 2.053 9.709 3.479 13.985 3.111 9.333 6.149 18.693 9.336 28 1.482 4.329 3.454 10.566 9.001 10.663 4.722.082 7.706-3.684 9.285-7.664 4.132-10.41 7.504-21.369 11.044-31.999 1.357-4.072 4.078-9.576 3.143-13.956-.948-4.44-6.582-6.266-10.082-3.44-4.422 3.57-6.036 12.216-7.724 17.396-1.713 5.254-3.425 10.619-4.67 16z" fill="#030202"/><path d="M577 610c-.005 8.311-2.302 18.084-13 16.772-5.05-.62-13.17-7.285-16.968-.624-4.12 7.227 6.749 11.749 11.968 12.756 11.429 2.206 24.551-.847 30.271-11.904 3.149-6.088 2.729-12.357 2.729-19v-26c0-5.562 1.134-12.584-.434-17.956-2.121-7.27-10.802-5.525-13.566-.044-3.764-2.812-7.213-4.719-12-4.96-3.214-.161-6.896-.362-10 .613-12.403 3.895-12 17.946-12 28.347 0 6.432-.281 13.305 3.343 18.96 6.593 10.287 20.967 10.049 29.657 3.04z" fill="#fefcfc"/><path d="M158 583h22c-.901-9.935-14.533-18.114-20.682-6.958-1.209 2.194-1.246 4.531-1.318 6.958m-56.956-9.972c-7.25 3.864-6.9 21.584-3.056 27.863 2.42 3.952 7.952 5.065 11.968 2.93 6.919-3.678 7.175-21.449 3.587-27.632-2.374-4.091-8.385-5.353-12.499-3.161m244.999-.286c-10.989 4.432-8.955 37.169 6.942 31.225 11.734-4.388 9.282-37.768-6.942-31.225m218.001 0c-10.443 4.233-7.303 33.601 6.937 28.225 10.909-4.119 8.538-34.498-6.937-28.225M516 593c-2.999 0-6.001-.038-9 .004-1.655.023-3.385-.019-4.995.43-4.564 1.272-7.608 6.296-3.686 10.132 4.776 4.674 14.704 2.615 17.078-3.58.83-2.166.595-4.713.603-6.986m186 0c-3.332 0-6.669-.058-10 .005-1.655.031-3.408-.008-4.981.598-4.19 1.615-6.178 6.56-2.7 9.963 4.406 4.312 13.558 2.969 16.167-2.61 1.141-2.44 1.304-5.319 1.514-7.956z" fill="#c33d6f"/></svg>