<svg xmlns="http://www.w3.org/2000/svg" viewBox="0 0 244.164 266.892"><path stroke="#FFF" stroke-width=".25" fill="none" d="M243.036 61.843c-.771-2.424-1.666-4.777-2.598-7.138-.926-2.36-1.979-4.67-3.082-6.976-1.122-2.295-2.289-4.594-3.685-6.809-1.394-2.221-2.911-4.408-4.902-6.482l-2.021-2.106-2.475 2.259c-2.566 2.342-5.146 4.674-7.678 7.047-1.287 1.195-2.562 2.4-3.849 3.6a88.546 88.546 0 0 0-2.399-2.868 148.707 148.707 0 0 0-5.739-6.216 140.221 140.221 0 0 0-12.589-11.352c-4.443-3.52-9.093-6.832-14.021-9.748-4.915-2.929-10.038-5.59-15.408-7.756-5.345-2.18-10.964-3.957-16.61-5.188C140.084.864 134.367.225 128.564.059c-5.775-.2-11.526.113-17.213.783-5.688.672-11.305 1.772-16.815 3.211A129.672 129.672 0 0 0 78.374 9.49a134.941 134.941 0 0 0-15.247 7.479c-4.913 2.791-9.618 5.92-14.104 9.31-4.493 3.374-8.775 7.009-12.76 10.935-4.025 3.877-7.761 8.031-11.271 12.344-3.497 4.328-6.7 8.873-9.665 13.561-2.952 4.695-5.604 9.572-7.986 14.57C4.944 82.685 2.856 87.823 1 93.044l-1 2.811 3.039.537c4.402.777 8.798 1.619 13.193 2.442l9.035 1.779-.237.626a110.746 110.746 0 0 0-1.546 4.419 129.903 129.903 0 0 0-2.57 8.976c-1.525 6.037-2.612 12.19-3.328 18.414a129.17 129.17 0 0 0-.78 18.832c.241 6.309.916 12.633 2.116 18.881a117.337 117.337 0 0 0 5.157 18.41c2.239 5.988 4.977 11.785 8.075 17.393 3.272 5.771 7.074 11.025 11.324 15.957 4.256 4.902 8.938 9.395 13.921 13.473 4.974 4.096 10.252 7.771 15.735 11.078a142.146 142.146 0 0 0 17.104 8.631c5.893 2.447 11.916 4.566 18.07 6.229 6.155 1.646 12.406 2.949 18.733 3.777 6.328.812 12.715 1.234 19.119 1.178 6.401-.104 12.818-.609 19.169-1.729 6.342-1.113 12.634-2.75 18.693-5.096 6.062-2.328 11.899-5.324 17.321-8.967l5.208-3.498-3.326-4.859a851.38 851.38 0 0 0-7.7-11.033l-5.044-7.15c.74-.537 1.481-1.074 2.206-1.625a128.361 128.361 0 0 0 6.131-5.035 139.647 139.647 0 0 0 5.78-5.355c1.879-1.828 3.665-3.744 5.408-5.689a133.82 133.82 0 0 0 5.062-5.967c1.646-2.016 3.17-4.129 4.678-6.24 1.474-2.139 2.944-4.268 4.274-6.486a122.639 122.639 0 0 0 3.843-6.725l-1.296-.844c-1.604 1.98-3.189 3.963-4.87 5.863a160.601 160.601 0 0 1-5.096 5.611c-3.511 3.623-7.118 7.115-10.931 10.361-1.892 1.633-3.85 3.188-5.812 4.719s-3.962 3.008-5.999 4.416a116.643 116.643 0 0 1-6.21 4.021 103.802 103.802 0 0 1-3.167 1.83c-1.024.576-2.176 1.193-3.065 1.611l-4.55 2.139 2.727 4.754 6.693 11.678c1.132 1.986 2.293 3.955 3.439 5.934a75.967 75.967 0 0 1-10.103 3.879c-5.343 1.586-10.834 2.768-16.427 3.389-5.581.67-11.241.871-16.896.68a127.498 127.498 0 0 1-16.926-1.672c-5.604-.943-11.171-2.158-16.632-3.76-5.458-1.602-10.85-3.439-16.079-5.66-5.236-2.195-10.357-4.662-15.259-7.492-4.931-2.773-9.672-5.867-14.118-9.311-4.467-3.418-8.61-7.209-12.426-11.27-3.792-4.057-7.254-8.496-10.12-13.115-2.926-4.838-5.552-9.879-7.751-15.104-2.19-5.232-3.979-10.641-5.41-16.16a118.985 118.985 0 0 1-3.139-16.883c-.657-5.717-.998-11.51-.864-17.32.126-5.807.593-11.641 1.502-17.418a122.1 122.1 0 0 1 1.646-8.614c.332-1.421.678-2.843 1.064-4.242a58.34 58.34 0 0 1 1.259-4.06l1.45-4.148-4.043-.498-13.322-1.639c-3.435-.456-6.869-.908-10.303-1.381a123.41 123.41 0 0 1 4.758-12.03c2.245-4.849 4.779-9.567 7.7-14.035a95.277 95.277 0 0 1 4.604-6.542 94.392 94.392 0 0 1 5.075-6.169c3.551-3.967 7.375-7.679 11.48-11.036a115.353 115.353 0 0 1 12.947-9.152 120.945 120.945 0 0 1 14.033-7.207c4.807-2.106 9.743-3.877 14.744-5.373a146.028 146.028 0 0 1 15.168-3.685c2.546-.502 5.109-.897 7.676-1.239a123.58 123.58 0 0 1 7.705-.85c5.14-.449 10.286-.57 15.39-.432 5.072.177 10.224.635 14.994 1.562 4.998 1.029 9.842 2.368 14.64 4.141a114.365 114.365 0 0 1 14.012 6.338c4.543 2.447 8.997 5.14 13.265 8.143a146.676 146.676 0 0 1 12.414 9.62 136.006 136.006 0 0 1 5.835 5.291 181.86 181.86 0 0 1 2.796 2.755c.896.91 1.85 1.91 2.608 2.758l3.582 3.987 3.161-3.64c2.275-2.621 4.529-5.262 6.779-7.905a507.224 507.224 0 0 0 4.696-5.562 43.954 43.954 0 0 1 2.352 2.625 90.267 90.267 0 0 1 4.416 5.799c1.42 2.006 2.74 4.096 4.084 6.187 1.332 2.095 2.79 4.146 3.854 6.392.979 2.063 1.249 3.416 1.249 3.416h1.312c.02-.009-.328-1.551-1.122-4.041z"/></svg>
