<svg baseProfile="tiny" xmlns="http://www.w3.org/2000/svg" width="200" height="200"><path shape-rendering="optimizeSpeed" fill="#fff" d="M0 0h200v200H0z"/><path shape-rendering="optimizeSpeed" d="M17 17h5v5h-5zM22 17h5v5h-5zM27 17h5v5h-5zM32 17h5v5h-5zM37 17h5v5h-5zM42 17h5v5h-5zM47 17h5v5h-5zM62 17h5v5h-5zM92 17h5v5h-5zM97 17h5v5h-5zM102 17h5v5h-5zM107 17h5v5h-5zM112 17h5v5h-5zM117 17h5v5h-5zM132 17h5v5h-5zM147 17h5v5h-5zM152 17h5v5h-5zM157 17h5v5h-5zM162 17h5v5h-5zM167 17h5v5h-5zM172 17h5v5h-5zM177 17h5v5h-5zM17 22h5v5h-5zM47 22h5v5h-5zM57 22h5v5h-5zM62 22h5v5h-5zM72 22h5v5h-5zM77 22h5v5h-5zM102 22h5v5h-5zM107 22h5v5h-5zM127 22h5v5h-5zM147 22h5v5h-5zM177 22h5v5h-5zM17 27h5v5h-5zM27 27h5v5h-5zM32 27h5v5h-5zM37 27h5v5h-5zM47 27h5v5h-5zM62 27h5v5h-5zM67 27h5v5h-5zM72 27h5v5h-5zM87 27h5v5h-5zM97 27h5v5h-5zM117 27h5v5h-5zM122 27h5v5h-5zM127 27h5v5h-5zM137 27h5v5h-5zM147 27h5v5h-5zM157 27h5v5h-5zM162 27h5v5h-5zM167 27h5v5h-5zM177 27h5v5h-5zM17 32h5v5h-5zM27 32h5v5h-5zM32 32h5v5h-5zM37 32h5v5h-5zM47 32h5v5h-5zM57 32h5v5h-5zM62 32h5v5h-5zM72 32h5v5h-5zM97 32h5v5h-5zM102 32h5v5h-5zM107 32h5v5h-5zM112 32h5v5h-5zM132 32h5v5h-5zM137 32h5v5h-5zM147 32h5v5h-5zM157 32h5v5h-5zM162 32h5v5h-5zM167 32h5v5h-5zM177 32h5v5h-5zM17 37h5v5h-5zM27 37h5v5h-5zM32 37h5v5h-5zM37 37h5v5h-5zM47 37h5v5h-5zM67 37h5v5h-5zM77 37h5v5h-5zM82 37h5v5h-5zM87 37h5v5h-5zM92 37h5v5h-5zM102 37h5v5h-5zM107 37h5v5h-5zM112 37h5v5h-5zM117 37h5v5h-5zM132 37h5v5h-5zM147 37h5v5h-5zM157 37h5v5h-5zM162 37h5v5h-5zM167 37h5v5h-5zM177 37h5v5h-5zM17 42h5v5h-5zM47 42h5v5h-5zM57 42h5v5h-5zM67 42h5v5h-5zM82 42h5v5h-5zM87 42h5v5h-5zM92 42h5v5h-5zM97 42h5v5h-5zM102 42h5v5h-5zM117 42h5v5h-5zM127 42h5v5h-5zM137 42h5v5h-5zM147 42h5v5h-5zM177 42h5v5h-5zM17 47h5v5h-5zM22 47h5v5h-5zM27 47h5v5h-5zM32 47h5v5h-5zM37 47h5v5h-5zM42 47h5v5h-5zM47 47h5v5h-5zM57 47h5v5h-5zM67 47h5v5h-5zM77 47h5v5h-5zM87 47h5v5h-5zM97 47h5v5h-5zM107 47h5v5h-5zM117 47h5v5h-5zM127 47h5v5h-5zM137 47h5v5h-5zM147 47h5v5h-5zM152 47h5v5h-5zM157 47h5v5h-5zM162 47h5v5h-5zM167 47h5v5h-5zM172 47h5v5h-5zM177 47h5v5h-5zM77 52h5v5h-5zM82 52h5v5h-5zM92 52h5v5h-5zM122 52h5v5h-5zM127 52h5v5h-5zM132 52h5v5h-5zM17 57h5v5h-5zM22 57h5v5h-5zM27 57h5v5h-5zM32 57h5v5h-5zM37 57h5v5h-5zM47 57h5v5h-5zM52 57h5v5h-5zM57 57h5v5h-5zM62 57h5v5h-5zM67 57h5v5h-5zM77 57h5v5h-5zM87 57h5v5h-5zM92 57h5v5h-5zM102 57h5v5h-5zM127 57h5v5h-5zM132 57h5v5h-5zM137 57h5v5h-5zM142 57h5v5h-5zM152 57h5v5h-5zM162 57h5v5h-5zM172 57h5v5h-5zM17 62h5v5h-5zM27 62h5v5h-5zM37 62h5v5h-5zM62 62h5v5h-5zM92 62h5v5h-5zM97 62h5v5h-5zM107 62h5v5h-5zM112 62h5v5h-5zM117 62h5v5h-5zM122 62h5v5h-5zM127 62h5v5h-5zM132 62h5v5h-5zM137 62h5v5h-5zM142 62h5v5h-5zM147 62h5v5h-5zM152 62h5v5h-5zM167 62h5v5h-5zM172 62h5v5h-5zM177 62h5v5h-5zM47 67h5v5h-5zM57 67h5v5h-5zM62 67h5v5h-5zM72 67h5v5h-5zM77 67h5v5h-5zM122 67h5v5h-5zM127 67h5v5h-5zM137 67h5v5h-5zM142 67h5v5h-5zM152 67h5v5h-5zM157 67h5v5h-5zM162 67h5v5h-5zM172 67h5v5h-5zM17 72h5v5h-5zM22 72h5v5h-5zM27 72h5v5h-5zM32 72h5v5h-5zM37 72h5v5h-5zM57 72h5v5h-5zM62 72h5v5h-5zM67 72h5v5h-5zM72 72h5v5h-5zM87 72h5v5h-5zM97 72h5v5h-5zM107 72h5v5h-5zM117 72h5v5h-5zM122 72h5v5h-5zM132 72h5v5h-5zM137 72h5v5h-5zM142 72h5v5h-5zM152 72h5v5h-5zM167 72h5v5h-5zM17 77h5v5h-5zM27 77h5v5h-5zM32 77h5v5h-5zM42 77h5v5h-5zM47 77h5v5h-5zM62 77h5v5h-5zM72 77h5v5h-5zM102 77h5v5h-5zM117 77h5v5h-5zM127 77h5v5h-5zM137 77h5v5h-5zM157 77h5v5h-5zM162 77h5v5h-5zM27 82h5v5h-5zM57 82h5v5h-5zM62 82h5v5h-5zM67 82h5v5h-5zM77 82h5v5h-5zM82 82h5v5h-5zM87 82h5v5h-5zM92 82h5v5h-5zM107 82h5v5h-5zM112 82h5v5h-5zM117 82h5v5h-5zM127 82h5v5h-5zM132 82h5v5h-5zM142 82h5v5h-5zM147 82h5v5h-5zM152 82h5v5h-5zM172 82h5v5h-5zM177 82h5v5h-5zM17 87h5v5h-5zM22 87h5v5h-5zM42 87h5v5h-5zM47 87h5v5h-5zM57 87h5v5h-5zM67 87h5v5h-5zM82 87h5v5h-5zM87 87h5v5h-5zM92 87h5v5h-5zM97 87h5v5h-5zM117 87h5v5h-5zM122 87h5v5h-5zM152 87h5v5h-5zM172 87h5v5h-5zM17 92h5v5h-5zM22 92h5v5h-5zM27 92h5v5h-5zM37 92h5v5h-5zM57 92h5v5h-5zM67 92h5v5h-5zM77 92h5v5h-5zM82 92h5v5h-5zM97 92h5v5h-5zM117 92h5v5h-5zM122 92h5v5h-5zM127 92h5v5h-5zM167 92h5v5h-5zM17 97h5v5h-5zM42 97h5v5h-5zM47 97h5v5h-5zM52 97h5v5h-5zM57 97h5v5h-5zM67 97h5v5h-5zM77 97h5v5h-5zM87 97h5v5h-5zM102 97h5v5h-5zM112 97h5v5h-5zM127 97h5v5h-5zM157 97h5v5h-5zM172 97h5v5h-5zM27 102h5v5h-5zM37 102h5v5h-5zM42 102h5v5h-5zM62 102h5v5h-5zM67 102h5v5h-5zM112 102h5v5h-5zM122 102h5v5h-5zM127 102h5v5h-5zM132 102h5v5h-5zM142 102h5v5h-5zM147 102h5v5h-5zM162 102h5v5h-5zM172 102h5v5h-5zM177 102h5v5h-5zM27 107h5v5h-5zM32 107h5v5h-5zM37 107h5v5h-5zM42 107h5v5h-5zM47 107h5v5h-5zM52 107h5v5h-5zM67 107h5v5h-5zM72 107h5v5h-5zM77 107h5v5h-5zM92 107h5v5h-5zM97 107h5v5h-5zM102 107h5v5h-5zM122 107h5v5h-5zM137 107h5v5h-5zM152 107h5v5h-5zM157 107h5v5h-5zM162 107h5v5h-5zM172 107h5v5h-5zM22 112h5v5h-5zM37 112h5v5h-5zM52 112h5v5h-5zM62 112h5v5h-5zM67 112h5v5h-5zM72 112h5v5h-5zM87 112h5v5h-5zM92 112h5v5h-5zM107 112h5v5h-5zM117 112h5v5h-5zM122 112h5v5h-5zM137 112h5v5h-5zM142 112h5v5h-5zM152 112h5v5h-5zM167 112h5v5h-5zM37 117h5v5h-5zM47 117h5v5h-5zM52 117h5v5h-5zM57 117h5v5h-5zM62 117h5v5h-5zM72 117h5v5h-5zM92 117h5v5h-5zM102 117h5v5h-5zM117 117h5v5h-5zM127 117h5v5h-5zM132 117h5v5h-5zM137 117h5v5h-5zM157 117h5v5h-5zM172 117h5v5h-5zM17 122h5v5h-5zM22 122h5v5h-5zM27 122h5v5h-5zM32 122h5v5h-5zM52 122h5v5h-5zM57 122h5v5h-5zM62 122h5v5h-5zM67 122h5v5h-5zM77 122h5v5h-5zM82 122h5v5h-5zM87 122h5v5h-5zM97 122h5v5h-5zM112 122h5v5h-5zM117 122h5v5h-5zM122 122h5v5h-5zM132 122h5v5h-5zM147 122h5v5h-5zM162 122h5v5h-5zM172 122h5v5h-5zM177 122h5v5h-5zM17 127h5v5h-5zM32 127h5v5h-5zM47 127h5v5h-5zM82 127h5v5h-5zM87 127h5v5h-5zM92 127h5v5h-5zM102 127h5v5h-5zM107 127h5v5h-5zM122 127h5v5h-5zM127 127h5v5h-5zM137 127h5v5h-5zM142 127h5v5h-5zM147 127h5v5h-5zM162 127h5v5h-5zM172 127h5v5h-5zM17 132h5v5h-5zM27 132h5v5h-5zM32 132h5v5h-5zM37 132h5v5h-5zM62 132h5v5h-5zM67 132h5v5h-5zM77 132h5v5h-5zM82 132h5v5h-5zM97 132h5v5h-5zM107 132h5v5h-5zM122 132h5v5h-5zM127 132h5v5h-5zM147 132h5v5h-5zM152 132h5v5h-5zM162 132h5v5h-5zM167 132h5v5h-5zM17 137h5v5h-5zM27 137h5v5h-5zM42 137h5v5h-5zM47 137h5v5h-5zM52 137h5v5h-5zM67 137h5v5h-5zM77 137h5v5h-5zM87 137h5v5h-5zM102 137h5v5h-5zM117 137h5v5h-5zM127 137h5v5h-5zM137 137h5v5h-5zM142 137h5v5h-5zM147 137h5v5h-5zM152 137h5v5h-5zM157 137h5v5h-5zM177 137h5v5h-5zM57 142h5v5h-5zM97 142h5v5h-5zM102 142h5v5h-5zM107 142h5v5h-5zM112 142h5v5h-5zM117 142h5v5h-5zM122 142h5v5h-5zM127 142h5v5h-5zM132 142h5v5h-5zM137 142h5v5h-5zM157 142h5v5h-5zM162 142h5v5h-5zM177 142h5v5h-5zM17 147h5v5h-5zM22 147h5v5h-5zM27 147h5v5h-5zM32 147h5v5h-5zM37 147h5v5h-5zM42 147h5v5h-5zM47 147h5v5h-5zM57 147h5v5h-5zM72 147h5v5h-5zM77 147h5v5h-5zM92 147h5v5h-5zM97 147h5v5h-5zM102 147h5v5h-5zM117 147h5v5h-5zM132 147h5v5h-5zM137 147h5v5h-5zM147 147h5v5h-5zM157 147h5v5h-5zM162 147h5v5h-5zM167 147h5v5h-5zM172 147h5v5h-5zM17 152h5v5h-5zM47 152h5v5h-5zM62 152h5v5h-5zM72 152h5v5h-5zM87 152h5v5h-5zM97 152h5v5h-5zM122 152h5v5h-5zM127 152h5v5h-5zM132 152h5v5h-5zM137 152h5v5h-5zM157 152h5v5h-5zM162 152h5v5h-5zM167 152h5v5h-5zM17 157h5v5h-5zM27 157h5v5h-5zM32 157h5v5h-5zM37 157h5v5h-5zM47 157h5v5h-5zM57 157h5v5h-5zM62 157h5v5h-5zM72 157h5v5h-5zM92 157h5v5h-5zM102 157h5v5h-5zM112 157h5v5h-5zM127 157h5v5h-5zM137 157h5v5h-5zM142 157h5v5h-5zM147 157h5v5h-5zM152 157h5v5h-5zM157 157h5v5h-5zM177 157h5v5h-5zM17 162h5v5h-5zM27 162h5v5h-5zM32 162h5v5h-5zM37 162h5v5h-5zM47 162h5v5h-5zM57 162h5v5h-5zM67 162h5v5h-5zM77 162h5v5h-5zM82 162h5v5h-5zM87 162h5v5h-5zM97 162h5v5h-5zM102 162h5v5h-5zM107 162h5v5h-5zM112 162h5v5h-5zM117 162h5v5h-5zM122 162h5v5h-5zM132 162h5v5h-5zM137 162h5v5h-5zM142 162h5v5h-5zM152 162h5v5h-5zM157 162h5v5h-5zM167 162h5v5h-5zM172 162h5v5h-5zM177 162h5v5h-5zM17 167h5v5h-5zM27 167h5v5h-5zM32 167h5v5h-5zM37 167h5v5h-5zM47 167h5v5h-5zM57 167h5v5h-5zM82 167h5v5h-5zM87 167h5v5h-5zM92 167h5v5h-5zM97 167h5v5h-5zM147 167h5v5h-5zM162 167h5v5h-5zM167 167h5v5h-5zM17 172h5v5h-5zM47 172h5v5h-5zM57 172h5v5h-5zM67 172h5v5h-5zM77 172h5v5h-5zM82 172h5v5h-5zM92 172h5v5h-5zM112 172h5v5h-5zM122 172h5v5h-5zM127 172h5v5h-5zM142 172h5v5h-5zM152 172h5v5h-5zM162 172h5v5h-5zM167 172h5v5h-5zM17 177h5v5h-5zM22 177h5v5h-5zM27 177h5v5h-5zM32 177h5v5h-5zM37 177h5v5h-5zM42 177h5v5h-5zM47 177h5v5h-5zM57 177h5v5h-5zM62 177h5v5h-5zM77 177h5v5h-5zM87 177h5v5h-5zM92 177h5v5h-5zM102 177h5v5h-5zM117 177h5v5h-5zM127 177h5v5h-5zM132 177h5v5h-5zM137 177h5v5h-5zM142 177h5v5h-5zM147 177h5v5h-5zM152 177h5v5h-5zM157 177h5v5h-5zM162 177h5v5h-5zM172 177h5v5h-5z"/></svg>