<svg xmlns="http://www.w3.org/2000/svg" width="300" height="300"><path fill="#fff" d="M0 0h300v300H0z"/><path d="M19 19h9v9h-9zM28 19h9v9h-9zM37 19h9v9h-9zM46 19h9v9h-9zM55 19h9v9h-9zM64 19h9v9h-9zM73 19h9v9h-9zM109 19h9v9h-9zM127 19h9v9h-9zM136 19h9v9h-9zM172 19h9v9h-9zM181 19h9v9h-9zM190 19h9v9h-9zM199 19h9v9h-9zM217 19h9v9h-9zM226 19h9v9h-9zM235 19h9v9h-9zM244 19h9v9h-9zM253 19h9v9h-9zM262 19h9v9h-9zM271 19h9v9h-9zM19 28h9v9h-9zM73 28h9v9h-9zM91 28h9v9h-9zM109 28h9v9h-9zM136 28h9v9h-9zM145 28h9v9h-9zM154 28h9v9h-9zM163 28h9v9h-9zM181 28h9v9h-9zM217 28h9v9h-9zM271 28h9v9h-9zM19 37h9v9h-9zM37 37h9v9h-9zM46 37h9v9h-9zM55 37h9v9h-9zM73 37h9v9h-9zM127 37h9v9h-9zM145 37h9v9h-9zM181 37h9v9h-9zM199 37h9v9h-9zM217 37h9v9h-9zM235 37h9v9h-9zM244 37h9v9h-9zM253 37h9v9h-9zM271 37h9v9h-9zM19 46h9v9h-9zM37 46h9v9h-9zM46 46h9v9h-9zM55 46h9v9h-9zM73 46h9v9h-9zM91 46h9v9h-9zM100 46h9v9h-9zM109 46h9v9h-9zM127 46h9v9h-9zM136 46h9v9h-9zM145 46h9v9h-9zM172 46h9v9h-9zM199 46h9v9h-9zM217 46h9v9h-9zM235 46h9v9h-9zM244 46h9v9h-9zM253 46h9v9h-9zM271 46h9v9h-9zM19 55h9v9h-9zM37 55h9v9h-9zM46 55h9v9h-9zM55 55h9v9h-9zM73 55h9v9h-9zM100 55h9v9h-9zM163 55h9v9h-9zM190 55h9v9h-9zM199 55h9v9h-9zM217 55h9v9h-9zM235 55h9v9h-9zM244 55h9v9h-9zM253 55h9v9h-9zM271 55h9v9h-9zM19 64h9v9h-9zM73 64h9v9h-9zM91 64h9v9h-9zM100 64h9v9h-9zM118 64h9v9h-9zM127 64h9v9h-9zM145 64h9v9h-9zM154 64h9v9h-9zM199 64h9v9h-9zM217 64h9v9h-9zM271 64h9v9h-9zM19 73h9v9h-9zM28 73h9v9h-9zM37 73h9v9h-9zM46 73h9v9h-9zM55 73h9v9h-9zM64 73h9v9h-9zM73 73h9v9h-9zM91 73h9v9h-9zM109 73h9v9h-9zM127 73h9v9h-9zM145 73h9v9h-9zM163 73h9v9h-9zM181 73h9v9h-9zM199 73h9v9h-9zM217 73h9v9h-9zM226 73h9v9h-9zM235 73h9v9h-9zM244 73h9v9h-9zM253 73h9v9h-9zM262 73h9v9h-9zM271 73h9v9h-9zM100 82h9v9h-9zM109 82h9v9h-9zM118 82h9v9h-9zM154 82h9v9h-9zM163 82h9v9h-9zM19 91h9v9h-9zM28 91h9v9h-9zM37 91h9v9h-9zM46 91h9v9h-9zM55 91h9v9h-9zM73 91h9v9h-9zM82 91h9v9h-9zM91 91h9v9h-9zM100 91h9v9h-9zM118 91h9v9h-9zM127 91h9v9h-9zM136 91h9v9h-9zM145 91h9v9h-9zM172 91h9v9h-9zM190 91h9v9h-9zM208 91h9v9h-9zM226 91h9v9h-9zM244 91h9v9h-9zM262 91h9v9h-9zM37 100h9v9h-9zM55 100h9v9h-9zM109 100h9v9h-9zM127 100h9v9h-9zM163 100h9v9h-9zM181 100h9v9h-9zM190 100h9v9h-9zM199 100h9v9h-9zM217 100h9v9h-9zM226 100h9v9h-9zM235 100h9v9h-9zM271 100h9v9h-9zM19 109h9v9h-9zM28 109h9v9h-9zM46 109h9v9h-9zM55 109h9v9h-9zM64 109h9v9h-9zM73 109h9v9h-9zM109 109h9v9h-9zM145 109h9v9h-9zM154 109h9v9h-9zM163 109h9v9h-9zM172 109h9v9h-9zM181 109h9v9h-9zM199 109h9v9h-9zM208 109h9v9h-9zM226 109h9v9h-9zM235 109h9v9h-9zM19 118h9v9h-9zM28 118h9v9h-9zM37 118h9v9h-9zM55 118h9v9h-9zM118 118h9v9h-9zM145 118h9v9h-9zM154 118h9v9h-9zM181 118h9v9h-9zM190 118h9v9h-9zM199 118h9v9h-9zM208 118h9v9h-9zM217 118h9v9h-9zM235 118h9v9h-9zM244 118h9v9h-9zM262 118h9v9h-9zM28 127h9v9h-9zM37 127h9v9h-9zM46 127h9v9h-9zM55 127h9v9h-9zM64 127h9v9h-9zM73 127h9v9h-9zM91 127h9v9h-9zM100 127h9v9h-9zM109 127h9v9h-9zM118 127h9v9h-9zM127 127h9v9h-9zM136 127h9v9h-9zM145 127h9v9h-9zM154 127h9v9h-9zM172 127h9v9h-9zM181 127h9v9h-9zM244 127h9v9h-9zM253 127h9v9h-9zM19 136h9v9h-9zM28 136h9v9h-9zM37 136h9v9h-9zM46 136h9v9h-9zM100 136h9v9h-9zM118 136h9v9h-9zM127 136h9v9h-9zM145 136h9v9h-9zM163 136h9v9h-9zM172 136h9v9h-9zM181 136h9v9h-9zM190 136h9v9h-9zM199 136h9v9h-9zM217 136h9v9h-9zM226 136h9v9h-9zM235 136h9v9h-9zM271 136h9v9h-9zM37 145h9v9h-9zM46 145h9v9h-9zM55 145h9v9h-9zM64 145h9v9h-9zM73 145h9v9h-9zM82 145h9v9h-9zM91 145h9v9h-9zM109 145h9v9h-9zM136 145h9v9h-9zM145 145h9v9h-9zM154 145h9v9h-9zM172 145h9v9h-9zM235 145h9v9h-9zM244 145h9v9h-9zM253 145h9v9h-9zM19 154h9v9h-9zM37 154h9v9h-9zM55 154h9v9h-9zM91 154h9v9h-9zM109 154h9v9h-9zM127 154h9v9h-9zM154 154h9v9h-9zM163 154h9v9h-9zM181 154h9v9h-9zM190 154h9v9h-9zM199 154h9v9h-9zM208 154h9v9h-9zM262 154h9v9h-9zM19 163h9v9h-9zM37 163h9v9h-9zM55 163h9v9h-9zM64 163h9v9h-9zM73 163h9v9h-9zM82 163h9v9h-9zM91 163h9v9h-9zM100 163h9v9h-9zM127 163h9v9h-9zM136 163h9v9h-9zM145 163h9v9h-9zM154 163h9v9h-9zM163 163h9v9h-9zM172 163h9v9h-9zM190 163h9v9h-9zM208 163h9v9h-9zM226 163h9v9h-9zM244 163h9v9h-9zM253 163h9v9h-9zM19 172h9v9h-9zM28 172h9v9h-9zM37 172h9v9h-9zM46 172h9v9h-9zM55 172h9v9h-9zM64 172h9v9h-9zM91 172h9v9h-9zM100 172h9v9h-9zM118 172h9v9h-9zM145 172h9v9h-9zM163 172h9v9h-9zM172 172h9v9h-9zM181 172h9v9h-9zM190 172h9v9h-9zM217 172h9v9h-9zM226 172h9v9h-9zM235 172h9v9h-9zM253 172h9v9h-9zM271 172h9v9h-9zM19 181h9v9h-9zM37 181h9v9h-9zM64 181h9v9h-9zM73 181h9v9h-9zM91 181h9v9h-9zM109 181h9v9h-9zM127 181h9v9h-9zM136 181h9v9h-9zM154 181h9v9h-9zM163 181h9v9h-9zM181 181h9v9h-9zM199 181h9v9h-9zM208 181h9v9h-9zM226 181h9v9h-9zM235 181h9v9h-9zM253 181h9v9h-9zM19 190h9v9h-9zM64 190h9v9h-9zM91 190h9v9h-9zM118 190h9v9h-9zM154 190h9v9h-9zM163 190h9v9h-9zM208 190h9v9h-9zM217 190h9v9h-9zM235 190h9v9h-9zM262 190h9v9h-9zM19 199h9v9h-9zM46 199h9v9h-9zM55 199h9v9h-9zM73 199h9v9h-9zM109 199h9v9h-9zM118 199h9v9h-9zM127 199h9v9h-9zM136 199h9v9h-9zM145 199h9v9h-9zM172 199h9v9h-9zM199 199h9v9h-9zM208 199h9v9h-9zM217 199h9v9h-9zM226 199h9v9h-9zM235 199h9v9h-9zM253 199h9v9h-9zM262 199h9v9h-9zM271 199h9v9h-9zM91 208h9v9h-9zM109 208h9v9h-9zM118 208h9v9h-9zM136 208h9v9h-9zM172 208h9v9h-9zM181 208h9v9h-9zM190 208h9v9h-9zM199 208h9v9h-9zM235 208h9v9h-9zM244 208h9v9h-9zM253 208h9v9h-9zM262 208h9v9h-9zM271 208h9v9h-9zM19 217h9v9h-9zM28 217h9v9h-9zM37 217h9v9h-9zM46 217h9v9h-9zM55 217h9v9h-9zM64 217h9v9h-9zM73 217h9v9h-9zM91 217h9v9h-9zM100 217h9v9h-9zM109 217h9v9h-9zM136 217h9v9h-9zM145 217h9v9h-9zM154 217h9v9h-9zM163 217h9v9h-9zM172 217h9v9h-9zM190 217h9v9h-9zM199 217h9v9h-9zM217 217h9v9h-9zM235 217h9v9h-9zM244 217h9v9h-9zM253 217h9v9h-9zM19 226h9v9h-9zM73 226h9v9h-9zM118 226h9v9h-9zM145 226h9v9h-9zM199 226h9v9h-9zM235 226h9v9h-9zM262 226h9v9h-9zM19 235h9v9h-9zM37 235h9v9h-9zM46 235h9v9h-9zM55 235h9v9h-9zM73 235h9v9h-9zM91 235h9v9h-9zM109 235h9v9h-9zM127 235h9v9h-9zM136 235h9v9h-9zM145 235h9v9h-9zM154 235h9v9h-9zM163 235h9v9h-9zM172 235h9v9h-9zM181 235h9v9h-9zM199 235h9v9h-9zM208 235h9v9h-9zM217 235h9v9h-9zM226 235h9v9h-9zM235 235h9v9h-9zM253 235h9v9h-9zM262 235h9v9h-9zM19 244h9v9h-9zM37 244h9v9h-9zM46 244h9v9h-9zM55 244h9v9h-9zM73 244h9v9h-9zM91 244h9v9h-9zM118 244h9v9h-9zM136 244h9v9h-9zM172 244h9v9h-9zM181 244h9v9h-9zM208 244h9v9h-9zM244 244h9v9h-9zM253 244h9v9h-9zM271 244h9v9h-9zM19 253h9v9h-9zM37 253h9v9h-9zM46 253h9v9h-9zM55 253h9v9h-9zM73 253h9v9h-9zM91 253h9v9h-9zM109 253h9v9h-9zM145 253h9v9h-9zM154 253h9v9h-9zM172 253h9v9h-9zM217 253h9v9h-9zM226 253h9v9h-9zM235 253h9v9h-9zM244 253h9v9h-9zM253 253h9v9h-9zM262 253h9v9h-9zM19 262h9v9h-9zM73 262h9v9h-9zM91 262h9v9h-9zM127 262h9v9h-9zM145 262h9v9h-9zM154 262h9v9h-9zM163 262h9v9h-9zM190 262h9v9h-9zM199 262h9v9h-9zM226 262h9v9h-9zM235 262h9v9h-9zM244 262h9v9h-9zM262 262h9v9h-9zM19 271h9v9h-9zM28 271h9v9h-9zM37 271h9v9h-9zM46 271h9v9h-9zM55 271h9v9h-9zM64 271h9v9h-9zM73 271h9v9h-9zM91 271h9v9h-9zM100 271h9v9h-9zM127 271h9v9h-9zM136 271h9v9h-9zM145 271h9v9h-9zM154 271h9v9h-9zM172 271h9v9h-9zM226 271h9v9h-9zM253 271h9v9h-9z"/></svg>
