<svg xmlns="http://www.w3.org/2000/svg" width="300" height="300"><g transform="translate(150, 150)"><path d="M7.654042494670958e-15,-125A125,125,0,0,1,38.62712429686843,-118.88206453689419L23.17627457812106,-71.32923872213651A75,75,0,0,0,4.592425496802574e-15,-75Z" stroke="#000" fill="red"></path><path d="M38.62712429686843,-118.88206453689419A125,125,0,0,1,73.47315653655915,-101.12712429686843L44.083893921935484,-60.67627457812106A75,75,0,0,0,23.17627457812106,-71.32923872213651Z" stroke="#000" fill="orange"></path><path d="M73.47315653655915,-101.12712429686843A125,125,0,0,1,118.88206453689419,-38.62712429686842L71.32923872213651,-23.176274578121056A75,75,0,0,0,44.083893921935484,-60.67627457812106Z" stroke="#000" fill="yellow"></path><path d="M118.88206453689419,-38.62712429686842A125,125,0,0,1,101.12712429686843,73.47315653655915L60.67627457812106,44.083893921935484A75,75,0,0,0,71.32923872213651,-23.176274578121056Z" stroke="#000" fill="lime"></path><path d="M101.12712429686843,73.47315653655915A125,125,0,0,1,-73.47315653655913,101.12712429686843L-44.08389392193548,60.67627457812106A75,75,0,0,0,60.67627457812106,44.083893921935484Z" stroke="#000" fill="green"></path><path d="M-73.47315653655913,101.12712429686843A125,125,0,0,1,-2.2962127484012872e-14,-125L-1.3777276490407723e-14,-75A75,75,0,0,0,-44.08389392193548,60.67627457812106Z" stroke="#000" fill="aqua"></path></g></svg>